Coordinates
version=1
nRows=13
nColumns=40
inDegrees=yes

Units are S.I. units (second, meters, Newtons, ...)
If the header above contains a line with 'inDegrees', this indicates whether rotational values are in degrees (yes) or radians (no).

endheader
time	pelvis_tilt	pelvis_list	pelvis_rotation	pelvis_tx	pelvis_ty	pelvis_tz	hip_flexion_r	hip_adduction_r	hip_rotation_r	knee_angle_r	knee_angle_r_beta	ankle_angle_r	subtalar_angle_r	mtp_angle_r	hip_flexion_l	hip_adduction_l	hip_rotation_l	knee_angle_l	knee_angle_l_beta	ankle_angle_l	subtalar_angle_l	mtp_angle_l	lumbar_extension	lumbar_bending	lumbar_rotation	arm_flex_r	arm_add_r	arm_rot_r	elbow_flex_r	pro_sup_r	wrist_flex_r	wrist_dev_r	arm_flex_l	arm_add_l	arm_rot_l	elbow_flex_l	pro_sup_l	wrist_flex_l	wrist_dev_l
     10.46700000	      4.58273996	      3.85531878	     -8.21402175	      0.06833413	      1.32729499	      0.01466019	     62.43582958	     -8.44606667	      5.17062393	     92.92466023	      1.62184128	      9.85929961	    -11.31554972	      0.00000000	     23.01985447	     -5.13508293	     -6.10061931	     59.35746812	      1.03598325	      3.77947416	    -10.22557476	      0.00000000	    -62.95552971	      0.12003445	     -0.88129672	     47.19622309	      0.43155137	     -6.82174924	     44.12909294	     28.55357386	      0.00000000	      0.00000000	     51.97335676	     15.77547906	     -5.03622811	     34.65545130	     10.88804754	      0.00000000	      0.00000000
     10.48300000	      4.98841865	      4.43371637	     -8.11494021	      0.06859162	      1.32787649	      0.01488653	     61.14325483	     -8.87486575	      5.70967933	     89.99415276	      1.57069427	      9.68822114	    -11.35907119	      0.00000000	     23.77128755	     -4.73083040	     -5.92767698	     62.98413316	      1.09928050	      3.93574645	    -10.34618971	      0.00000000	    -63.25427639	     -0.18046281	     -1.48045182	     47.13296657	      0.40251613	     -6.85450928	     44.25105049	     28.56522657	      0.00000000	      0.00000000	     52.05835279	     15.75058015	     -4.98307970	     34.64602652	     11.12309582	      0.00000000	      0.00000000
     10.50000000	      5.08946341	      4.48044913	     -7.45413179	      0.06858666	      1.32836135	      0.01422419	     59.62442588	     -9.52129904	      5.30443575	     86.75725475	      1.51419975	      9.32568483	    -11.35786169	      0.00000000	     25.07207742	     -4.55727179	     -4.94189108	     66.84915583	      1.16673787	      4.31986846	    -11.33553020	      0.00000000	    -63.34199505	      0.31843865	     -1.77508425	     47.16042584	      0.39090108	     -7.03117022	     44.21689585	     28.50088619	      0.00000000	      0.00000000	     52.21849141	     15.81694448	     -5.01400111	     34.46326124	     11.39652675	      0.00000000	      0.00000000
     10.51700000	      5.40866633	      5.02532084	     -7.24901239	      0.06866229	      1.32877656	      0.01417155	     57.99598872	    -10.05449355	      5.62964840	     83.60378859	      1.45916138	      8.68546684	    -11.38754916	      0.00000000	     26.11109728	     -4.12586415	     -4.59897327	     70.53015057	      1.23098335	      4.68011021	    -11.37494970	      0.00000000	    -63.55104469	      0.11691329	     -2.36247848	     47.04956992	      0.45942459	     -7.23975046	     44.34957802	     28.55498821	      0.00000000	      0.00000000	     52.26359421	     15.77399965	     -4.93601971	     34.43610953	     11.89836734	      0.00000000	      0.00000000
     10.53300000	      5.59991373	      5.13733141	     -6.48693885	      0.06862764	      1.32945141	      0.01336698	     55.96210764	    -10.84885235	      4.94929527	     80.12888124	      1.39851280	      7.67818659	    -11.87220719	      0.00000000	     27.45869050	     -3.84671841	     -3.54130304	     74.31744509	      1.29708411	      5.11461389	    -11.60420007	      0.00000000	    -63.71687395	      0.62603894	     -2.69917936	     46.95448377	      0.48570465	     -7.66063800	     44.42462160	     28.44071516	      0.00000000	      0.00000000	     52.41791100	     15.86009215	     -4.79099109	     34.23028639	     11.98244622	      0.00000000	      0.00000000
     10.55000000	      5.82577744	      5.49334097	     -6.01308102	      0.06861341	      1.32991307	      0.01284773	     53.88742041	    -11.47833761	      4.74059722	     76.71594208	      1.33894578	      6.63492902	    -12.10664831	      0.00000000	     28.77598885	     -3.46396004	     -2.89639418	     77.96864211	      1.36080952	      5.65055879	    -11.51668501	      0.00000000	    -63.87591560	      0.73882160	     -3.17157907	     46.81322095	      0.57378654	     -8.02065547	     44.54555735	     28.26838580	      0.00000000	      0.00000000	     52.50683061	     15.83979225	     -4.37242584	     34.05906362	     11.70516083	      0.00000000	      0.00000000
     10.56700000	      6.02960589	      5.98216001	     -5.59288335	      0.06859333	      1.33031393	      0.01242586	     51.73594294	    -12.15205839	      4.61067536	     73.28796634	      1.27911631	      5.37626738	    -12.11766094	      0.00000000	     30.13739855	     -2.97438113	     -2.41596837	     81.47779994	      1.42205588	      6.34090769	    -11.45003446	      0.00000000	    -64.03173579	      0.68794559	     -3.70667485	     46.64474321	      0.65394321	     -8.44711491	     44.65191983	     28.15336275	      0.00000000	      0.00000000	     52.58088506	     15.80119894	     -3.95221868	     33.93140749	     11.62546917	      0.00000000	      0.00000000
     10.58300000	      6.15087973	      6.36373468	     -4.96642130	      0.06860845	      1.33057521	      0.01166274	     49.38578634	    -12.84703481	      4.18612483	     69.78807608	      1.21803171	      4.16697504	    -12.31753855	      0.00000000	     31.70670279	     -2.46563506	     -1.69278422	     84.96982925	      1.48300329	      7.00158350	    -11.20512379	      0.00000000	    -64.11862747	      0.86229915	     -4.22949317	     46.43923449	      0.72783065	     -8.85892512	     44.81735922	     28.06510909	      0.00000000	      0.00000000	     52.62826678	     15.73512872	     -3.42155612	     33.74156036	     11.55500072	      0.00000000	      0.00000000
     10.60000000	      6.20337621	      6.70233544	     -4.18208493	      0.06851656	      1.33074341	      0.01093506	     46.93785315	    -13.55400844	      3.55646806	     66.35053601	      1.15803531	      3.07485976	    -12.67029028	      0.00000000	     33.47200446	     -1.94077879	     -0.84925716	     88.36787035	      1.54231029	      7.60435571	    -10.81207907	      0.00000000	    -64.14598915	      1.16059644	     -4.75373534	     46.18416942	      0.78615557	     -9.29455811	     45.00746663	     28.00306032	      0.00000000	      0.00000000	     52.70597625	     15.67786104	     -2.85752519	     33.51792782	     11.40711735	      0.00000000	      0.00000000
     10.61700000	      6.22006021	      7.19960212	     -3.53286031	      0.06834567	      1.33081181	      0.01030496	     44.49509641	    -14.21862080	      3.15228983	     62.94563575	      1.09860859	      2.00131677	    -12.91366603	      0.00000000	     35.33806668	     -1.35386015	     -0.38878381	     91.61754155	      1.59902775	      8.22815917	    -10.51318480	      0.00000000	    -64.10141483	      1.26390128	     -5.34271764	     45.91044321	      0.80626129	     -9.72742646	     45.11581369	     27.99118237	      0.00000000	      0.00000000	     52.76213315	     15.71264622	     -2.39804869	     33.30089241	     11.38798821	      0.00000000	      0.00000000
     10.63300000	      6.18376987	      7.72987312	     -2.88022587	      0.06814898	      1.33072573	      0.00966109	     41.99012851	    -14.84868371	      2.74372044	     59.56085073	      1.03953295	      0.98901878	    -13.18968192	      0.00000000	     37.36958353	     -0.73273709	     -0.03093566	     94.76283216	      1.65392343	      8.80686749	    -10.24861149	      0.00000000	    -63.99023399	      1.34126712	     -5.94943144	     45.62081001	      0.81471488	    -10.16005897	     45.21794034	     27.98027991	      0.00000000	      0.00000000	     52.79025615	     15.76204618	     -1.94665649	     33.06313926	     11.36586126	      0.00000000	      0.00000000
     10.65000000	      6.07311561	      8.53798129	     -2.61909504	      0.06793813	      1.33035622	      0.00948619	     39.72755153	    -15.34033841	      2.96830637	     56.40908338	      0.98452423	      0.54285541	    -13.42444181	      0.00000000	     39.45489492	     -0.15030705	     -0.30057953	     97.55282169	      1.70261793	      9.16701900	    -10.02630393	      0.00000000	    -63.79031267	      0.89464729	     -6.68783563	     45.34210209	      0.79097342	    -10.41606230	     45.28198096	     27.97296019	      0.00000000	      0.00000000	     52.73486472	     15.82485461	     -1.72398439	     32.90820796	     11.44957709	      0.00000000	      0.00000000
     10.66700000	      5.93995027	      8.69555496	     -1.37875696	      0.06762760	      1.33020013	      0.00816937	     36.98410619	    -15.92865523	      1.56819899	     53.31244110	      0.93047763	     -0.62357382	    -14.19862014	      0.00000000	     41.77412707	      0.51200360	      0.59560184	    100.25541747	      1.74978713	      9.54834910	     -9.70794165	      0.00000000	    -63.61647057	      1.63780472	     -7.19613367	     45.04130455	      0.83496333	    -10.94916315	     45.39555932	     27.96025661	      0.00000000	      0.00000000	     52.79334637	     15.89902181	     -1.17133973	     32.61730469	     11.27326763	      0.00000000	      0.00000000
